<svg xmlns="http://www.w3.org/2000/svg" xmlns:xlink="http://www.w3.org/1999/xlink" id="Capa_1" data-name="Capa 1" viewBox="0 0 424.26 424.26"><defs><style>.cls-1{opacity:0.4;}.cls-2,.cls-3{fill:#fff;}.cls-3{opacity:0.2;}.cls-4{fill:#f4767a;}.cls-5{fill:#ed5561;}.cls-6{fill:#bbcee1;}.cls-7{fill:#d8395a;}.cls-8{fill:#933e31;}.cls-9{fill:#1c75bc;}.cls-10{fill:#9d4d36;}.cls-11{fill:#a7bcce;}.cls-12{fill:#2a87c6;}.cls-13{fill:#e8ebf5;}.cls-14{fill:#0f4463;}.cls-15{fill:#0b3b56;}.cls-16{fill:#1f5e77;}.cls-17{fill:#07304b;}.cls-18{fill:url(#linear-gradient);}.cls-19{fill:#fed4bd;}.cls-20{fill:#f4c5a2;}.cls-21{fill:#bf272d;}.cls-22{fill:#eb1c24;}.cls-23{fill:#ef4136;}.cls-24{fill:#91a6b7;}.cls-25{fill:#79ff68;}.cls-26{fill:#50e85e;}.cls-27{fill:#3cc743;}.cls-28{fill:#9263c1;}.cls-29{fill:#8444b2;}.cls-30{fill:#7231a3;}.cls-31{fill:#ffa8e1;}.cls-32{fill:#ff7ad2;}.cls-33{fill:#de64c6;}.cls-34{fill:#fcec32;}.cls-35{fill:#f5d012;}.cls-36{fill:#eaa10c;}.cls-37{fill:#edf0f8;}.cls-38{fill:#f0cec9;}.cls-39{fill:#fffbf0;}.cls-40{fill:#f5ddd8;}.cls-41{fill:#dfbab8;}</style><linearGradient id="linear-gradient" x1="159.26" y1="240.11" x2="189.74" y2="139.82" gradientUnits="userSpaceOnUse"><stop offset="0" stop-color="#1c75bc"></stop><stop offset="0.28" stop-color="#2077bc"></stop><stop offset="0.54" stop-color="#2b7ebc"></stop><stop offset="0.8" stop-color="#3e88bc"></stop><stop offset="1" stop-color="#5394bc"></stop></linearGradient></defs><title>desarrollo-web</title><g class="cls-1"><polygon class="cls-2" points="204.33 56.61 204.33 58.5 212.27 63.08 212.27 61.19 204.33 56.61"></polygon><polygon class="cls-2" points="204.33 60.06 204.33 61.95 212.27 66.53 212.27 64.64 204.33 60.06"></polygon><polygon class="cls-2" points="204.33 63.51 204.33 65.4 212.27 69.98 212.27 68.09 204.33 63.51"></polygon><polygon class="cls-2" points="264.26 103.42 264.26 101.53 215.25 73.26 215.25 75.15 264.26 103.42"></polygon><polygon class="cls-2" points="204.33 66.97 204.33 68.86 212.27 73.44 212.27 71.55 204.33 66.97"></polygon><polygon class="cls-2" points="204.33 70.42 204.33 72.31 212.27 76.89 212.27 75 204.33 70.42"></polygon><polygon class="cls-2" points="264.26 106.87 264.26 104.98 215.25 76.72 215.25 78.61 264.26 106.87"></polygon><polygon class="cls-2" points="204.33 80.78 204.33 82.67 212.27 87.25 212.27 85.36 204.33 80.78"></polygon><polygon class="cls-2" points="204.33 84.23 204.33 86.12 212.27 90.7 212.27 88.81 204.33 84.23"></polygon><polygon class="cls-2" points="204.33 98.04 204.33 99.93 212.27 104.51 212.27 102.62 204.33 98.04"></polygon><polygon class="cls-2" points="204.33 101.49 204.33 103.38 212.27 107.96 212.27 106.07 204.33 101.49"></polygon><polygon class="cls-2" points="246.17 125.62 215.25 107.79 215.25 109.68 246.17 127.51 246.17 125.62"></polygon><polygon class="cls-2" points="247.8 126.56 247.8 128.45 264.26 137.95 264.26 136.06 247.8 126.56"></polygon><polygon class="cls-2" points="230.78 113.3 215.25 104.34 215.25 106.23 230.78 115.19 230.78 113.3"></polygon><polygon class="cls-2" points="232.41 114.24 232.41 116.13 264.26 134.49 264.26 132.6 232.41 114.24"></polygon><polygon class="cls-2" points="260.07 119.83 260.07 121.72 264.26 124.14 264.26 122.25 260.07 119.83"></polygon><polygon class="cls-2" points="237.27 103.23 215.25 90.53 215.25 92.42 237.27 105.12 237.27 103.23"></polygon><polygon class="cls-2" points="228.25 70.4 215.25 62.9 215.25 64.79 228.25 72.29 228.25 70.4"></polygon><polygon class="cls-2" points="249.55 82.69 229.88 71.34 229.88 73.23 249.55 84.58 249.55 82.69"></polygon><polygon class="cls-2" points="238.09 79.53 224.24 71.54 224.24 73.43 238.09 81.42 238.09 79.53"></polygon><polygon class="cls-2" points="252.62 87.91 239.72 80.47 239.72 82.36 252.62 89.8 252.62 87.91"></polygon><polygon class="cls-2" points="254.25 88.85 254.25 90.74 264.26 96.51 264.26 94.62 254.25 88.85"></polygon><polygon class="cls-2" points="217.81 71.29 217.81 73.18 228.25 79.2 228.25 77.31 217.81 71.29"></polygon><polygon class="cls-2" points="260.17 95.72 229.88 78.25 229.88 80.14 260.17 97.61 260.17 95.72"></polygon><polygon class="cls-2" points="242.83 96.07 223.03 84.66 223.03 86.55 242.83 97.97 242.83 96.07"></polygon><polygon class="cls-2" points="260.17 106.08 244.46 97.01 244.46 98.91 260.17 107.97 260.17 106.08"></polygon><polygon class="cls-2" points="258.44 115.44 238.9 104.17 238.9 106.06 258.44 117.33 258.44 115.44"></polygon><polygon class="cls-2" points="247.8 112.75 247.8 114.64 258.44 120.78 258.44 118.89 247.8 112.75"></polygon><polygon class="cls-2" points="219.09 96.19 215.25 93.98 215.25 95.87 219.09 98.08 219.09 96.19"></polygon><polygon class="cls-2" points="226.26 100.33 226.26 102.22 246.17 113.7 246.17 111.81 226.26 100.33"></polygon><polygon class="cls-2" points="224.63 99.39 220.71 97.13 220.71 99.02 224.63 101.28 224.63 99.39"></polygon><polygon class="cls-2" points="242.49 113.14 220.71 100.58 220.71 102.47 242.49 115.03 242.49 113.14"></polygon></g><g class="cls-1"><polygon class="cls-2" points="246.67 25.33 213.74 6.27 213.74 7.94 246.67 27.01 246.67 25.33"></polygon><polygon class="cls-2" points="213.74 11.23 264.26 40.45 264.26 38.77 213.74 9.55 213.74 11.23"></polygon><polygon class="cls-2" points="248.87 26.57 248.87 28.25 264.26 37.16 264.26 35.48 248.87 26.57"></polygon><polygon class="cls-2" points="246.67 31.75 213.74 12.68 213.74 14.36 246.67 33.42 246.67 31.75"></polygon><polygon class="cls-2" points="213.74 17.65 264.26 46.86 264.26 45.19 213.74 15.97 213.74 17.65"></polygon><polygon class="cls-2" points="248.87 34.67 264.26 43.58 264.26 41.9 248.87 32.99 248.87 34.67"></polygon><polygon class="cls-2" points="246.67 42.34 213.74 23.28 213.74 24.95 246.67 44.02 246.67 42.34"></polygon><polygon class="cls-2" points="213.74 28.24 264.26 57.46 264.26 55.78 213.74 26.57 213.74 28.24"></polygon><polygon class="cls-2" points="248.87 45.26 264.26 54.17 264.26 52.49 248.87 43.59 248.87 45.26"></polygon><polygon class="cls-2" points="246.67 48.76 213.74 29.69 213.74 31.37 246.67 50.44 246.67 48.76"></polygon><polygon class="cls-2" points="213.74 34.66 264.26 63.87 264.26 62.2 213.74 32.98 213.74 34.66"></polygon><polygon class="cls-2" points="248.87 51.68 264.26 60.59 264.26 58.91 248.87 50 248.87 51.68"></polygon><polygon class="cls-2" points="246.67 59.35 213.74 40.29 213.74 41.96 246.67 61.03 246.67 59.35"></polygon><polygon class="cls-2" points="213.74 45.25 264.26 74.47 264.26 72.79 213.74 43.58 213.74 45.25"></polygon><polygon class="cls-2" points="248.87 62.27 264.26 71.18 264.26 69.5 248.87 60.59 248.87 62.27"></polygon><polygon class="cls-2" points="246.67 65.77 213.74 46.7 213.74 48.38 246.67 67.45 246.67 65.77"></polygon><polygon class="cls-2" points="213.74 51.67 264.26 80.89 264.26 79.21 213.74 49.99 213.74 51.67"></polygon><polygon class="cls-2" points="248.87 68.69 264.26 77.6 264.26 75.92 248.87 67.01 248.87 68.69"></polygon></g><path class="cls-3" d="M157.84,49.31l-24.6-14.19a1.8,1.8,0,0,0-2.7,1.56V66.12a4,4,0,0,0,2,3.48l24.59,14.22a1.85,1.85,0,0,0,2.77-1.6V52.9A4.15,4.15,0,0,0,157.84,49.31Z"></path><path class="cls-4" d="M146.93,74.19,114.68,55.58a3.07,3.07,0,0,0-3.23.13h0l-7.08,4.09,3.29,4.46,1.23,1.41v32a5.32,5.32,0,0,0,2.66,4.61l24.14,14,.24,1.34,4.93,6.9,7.57-4.45,0,0,.05,0h0a2.41,2.41,0,0,0,1.16-2.07V79A5.5,5.5,0,0,0,146.93,74.19Z"></path><path class="cls-5" d="M139.39,78.62,106.76,59.8a2.39,2.39,0,0,0-3.58,2.07v39.05a5.33,5.33,0,0,0,2.66,4.62l32.62,18.86a2.45,2.45,0,0,0,3.68-2.12V83.38A5.51,5.51,0,0,0,139.39,78.62Z"></path><path class="cls-6" d="M140.9,124.4l0,0h0Z"></path><path class="cls-7" d="M142.14,122.28V83.38a5.66,5.66,0,0,0-.37-1.87l7.56-4.36a5.24,5.24,0,0,1,.35,1.8v38.9a2.41,2.41,0,0,1-1.16,2.07h0l-.05,0,0,0-7.51,4.41A2.41,2.41,0,0,0,142.14,122.28Z"></path><path class="cls-2" d="M110.93,78.49l-4-2.29,0,14.28L109.56,92l0-5.07,1.13.65q2.31,1.33,3.57.84c.83-.34,1.25-1.27,1.26-2.81a7.19,7.19,0,0,0-1.17-4A9.87,9.87,0,0,0,110.93,78.49Zm1.34,7a2.45,2.45,0,0,1-1.82-.5l-.87-.5,0-4.24,1.2.7a4.42,4.42,0,0,1,1.58,1.42,3.51,3.51,0,0,1,.5,1.87C112.88,84.89,112.67,85.3,112.27,85.44Z"></path><polygon class="cls-2" points="124.74 92.07 119.82 89.22 119.83 83.63 117.2 82.11 117.16 96.39 119.79 97.91 119.81 91.74 124.73 94.58 124.71 100.75 127.34 102.26 127.38 87.99 124.75 86.47 124.74 92.07"></polygon><path class="cls-2" d="M137.22,94.79a10,10,0,0,0-3.43-3.11l-4-2.29,0,14.28,2.63,1.52,0-5.07,1.13.65c1.54.89,2.73,1.17,3.56.84s1.27-1.26,1.27-2.8A7.14,7.14,0,0,0,137.22,94.79Zm-2.1,3.84a2.43,2.43,0,0,1-1.82-.49l-.87-.5,0-4.24,1.2.69a4.52,4.52,0,0,1,1.58,1.42,3.51,3.51,0,0,1,.5,1.87C135.73,98.08,135.52,98.5,135.12,98.63Z"></path><g class="cls-1"><polygon class="cls-2" points="70.77 75.64 70.77 77.54 78.71 82.11 78.71 80.22 70.77 75.64"></polygon><polygon class="cls-2" points="70.77 79.1 70.77 80.99 78.71 85.57 78.71 83.68 70.77 79.1"></polygon><polygon class="cls-2" points="70.77 82.55 70.77 84.44 78.71 89.02 78.71 87.13 70.77 82.55"></polygon><polygon class="cls-2" points="130.7 122.46 130.7 120.57 81.69 92.3 81.69 94.19 130.7 122.46"></polygon><polygon class="cls-2" points="70.77 86 70.77 87.89 78.71 92.47 78.71 90.58 70.77 86"></polygon><polygon class="cls-2" points="70.77 89.46 70.77 91.35 78.71 95.93 78.71 94.04 70.77 89.46"></polygon><polygon class="cls-2" points="130.7 125.91 130.7 124.02 81.69 95.75 81.69 97.64 130.7 125.91"></polygon><polygon class="cls-2" points="70.77 99.81 70.77 101.7 78.71 106.28 78.71 104.39 70.77 99.81"></polygon><polygon class="cls-2" points="70.77 103.27 70.77 105.16 78.71 109.74 78.71 107.85 70.77 103.27"></polygon><polygon class="cls-2" points="70.77 117.08 70.77 118.97 78.71 123.55 78.71 121.66 70.77 117.08"></polygon><polygon class="cls-2" points="70.77 120.53 70.77 122.42 78.71 127 78.71 125.11 70.77 120.53"></polygon><polygon class="cls-2" points="112.61 144.66 81.69 126.83 81.69 128.72 112.61 146.55 112.61 144.66"></polygon><polygon class="cls-2" points="114.24 145.6 114.24 147.49 130.7 156.99 130.7 155.09 114.24 145.6"></polygon><polygon class="cls-2" points="97.22 132.34 81.69 123.38 81.69 125.27 97.22 134.23 97.22 132.34"></polygon><polygon class="cls-2" points="98.85 133.28 98.85 135.17 130.7 153.53 130.7 151.64 98.85 133.28"></polygon><polygon class="cls-2" points="126.51 138.87 126.51 140.76 130.7 143.17 130.7 141.28 126.51 138.87"></polygon><polygon class="cls-2" points="103.71 122.27 81.69 109.57 81.69 111.46 103.71 124.16 103.71 122.27"></polygon><polygon class="cls-2" points="94.69 89.44 81.69 81.94 81.69 83.83 94.69 91.33 94.69 89.44"></polygon><polygon class="cls-2" points="115.99 101.73 96.32 90.38 96.32 92.27 115.99 103.62 115.99 101.73"></polygon><polygon class="cls-2" points="104.53 98.57 90.67 90.58 90.67 92.47 104.53 100.46 104.53 98.57"></polygon><polygon class="cls-2" points="119.06 106.95 106.16 99.51 106.16 101.4 119.06 108.84 119.06 106.95"></polygon><polygon class="cls-2" points="120.69 107.89 120.69 109.78 130.7 115.55 130.7 113.66 120.69 107.89"></polygon><polygon class="cls-2" points="84.25 90.33 84.25 92.22 94.69 98.24 94.69 96.34 84.25 90.33"></polygon><polygon class="cls-2" points="126.61 114.76 96.32 97.28 96.32 99.18 126.61 116.65 126.61 114.76"></polygon><polygon class="cls-2" points="109.27 115.11 89.47 103.69 89.47 105.58 109.27 117 109.27 115.11"></polygon><polygon class="cls-2" points="126.61 125.12 110.9 116.05 110.9 117.94 126.61 127.01 126.61 125.12"></polygon><polygon class="cls-2" points="124.88 134.47 105.34 123.21 105.34 125.1 124.88 136.37 124.88 134.47"></polygon><polygon class="cls-2" points="114.24 131.79 114.24 133.68 124.88 139.82 124.88 137.93 114.24 131.79"></polygon><polygon class="cls-2" points="85.52 115.23 81.69 113.02 81.69 114.91 85.52 117.12 85.52 115.23"></polygon><polygon class="cls-2" points="92.7 119.37 92.7 121.26 112.61 132.74 112.61 130.85 92.7 119.37"></polygon><polygon class="cls-2" points="91.07 118.43 87.15 116.17 87.15 118.06 91.07 120.32 91.07 118.43"></polygon><polygon class="cls-2" points="108.92 132.18 87.15 119.62 87.15 121.51 108.92 134.07 108.92 132.18"></polygon></g><path class="cls-3" d="M307.55,100.22,283,86a1.8,1.8,0,0,0-2.7,1.56V117a4,4,0,0,0,2,3.47l24.59,14.22a1.84,1.84,0,0,0,2.77-1.6V103.8A4.13,4.13,0,0,0,307.55,100.22Z"></path><path class="cls-3" d="M341.14,43.31l-24.6-14.19a1.8,1.8,0,0,0-2.7,1.56V60.12a4,4,0,0,0,2,3.48l24.59,14.22a1.85,1.85,0,0,0,2.77-1.6V46.9A4.15,4.15,0,0,0,341.14,43.31Z"></path><path class="cls-3" d="M417.08,197.25l-24.6-14.2a1.8,1.8,0,0,0-2.7,1.56v29.45a4,4,0,0,0,2,3.47l24.59,14.22a1.84,1.84,0,0,0,2.77-1.6V200.84A4.14,4.14,0,0,0,417.08,197.25Z"></path><path class="cls-3" d="M203,124.81l-24.6-14.19a1.8,1.8,0,0,0-2.7,1.56v29.44a4,4,0,0,0,2,3.48l24.59,14.22a1.85,1.85,0,0,0,2.77-1.6V128.4A4.15,4.15,0,0,0,203,124.81Z"></path><path class="cls-8" d="M110.41,366.76c-6.53.06-4.39-4.9-4.39-4.9-9.69-3-14.44-1.31-14.45-1.31-2.43,8.55-1.45,13.72-1.54,15.78,0,1,.71,1.64,1.67,2,5.21,1.94,10,3.23,19.65,2.29,7.15-.7,14.71-7.31,13-14.11C123.27,362.28,117,366.7,110.41,366.76Z"></path><path class="cls-9" d="M107.61,305.37c-1.92-2.48-5.19-4.61-10.63-3.17L38.6,313.46l2.19,15a23.25,23.25,0,0,0,24.6,7.31A91,91,0,0,0,91.2,324l-2,41.37s9.16,2.84,17.31-2.08c1.37-.83,2.64-40.72,3-51A9.32,9.32,0,0,0,107.61,305.37Z"></path><path class="cls-10" d="M138.43,378.73c-6.78.06-4.55-5.09-4.55-5.09-10.07-3.07-15-1.36-15-1.36-2.52,8.88-1.51,14.25-1.6,16.38,0,1.06.74,1.71,1.73,2.07,5.41,2,10.34,3.36,20.41,2.38,7.42-.73,15.27-7.59,13.49-14.65C151.79,374.07,145.3,378.66,138.43,378.73Z"></path><polygon class="cls-6" points="72.08 362.27 21.97 333.3 21.97 340.35 72.09 369.25 72.08 362.27"></polygon><polygon class="cls-2" points="67.52 307.13 21.97 333.3 72.08 362.27 117.69 336.06 67.52 307.13"></polygon><polygon class="cls-11" points="117.69 336.06 72.08 362.27 72.09 369.25 117.69 342.86 117.69 336.06"></polygon><path class="cls-12" d="M135.53,315c-2-2.58-5.4-4.79-11-3.29L63.87,323.39,66.14,339a24.17,24.17,0,0,0,25.54,7.6,94.83,94.83,0,0,0,26.81-12.24l-2,43s9.51,2.94,18-2.17c1.42-.85,2.75-42.27,3.17-52.91C137.7,319.27,137.32,317.32,135.53,315Z"></path><path class="cls-13" d="M27.21,227.31l103.5-60.09a14.16,14.16,0,0,1,14.19,0l163,94.32a6.24,6.24,0,0,1,0,10.8l-101.2,58.75a16.82,16.82,0,0,1-16.86,0L27.22,237A5.59,5.59,0,0,1,27.21,227.31Z"></path><path class="cls-11" d="M27.22,237,189.9,331.1a16.82,16.82,0,0,0,16.86,0L308,272.33a6.16,6.16,0,0,0,3.11-5.37v7.89h0a6.17,6.17,0,0,1-3.09,5.28l-101.2,58.74a16.8,16.8,0,0,1-16.86,0L27.22,244.78a5.54,5.54,0,0,1-2.79-4.88h0v-7.73A5.5,5.5,0,0,0,27.22,237Z"></path><path class="cls-6" d="M27.22,237,189.9,331.1a16.76,16.76,0,0,0,7.7,2.21v7.79a16.76,16.76,0,0,1-7.7-2.21L27.22,244.78a5.54,5.54,0,0,1-2.79-4.88h0v-7.73A5.5,5.5,0,0,0,27.22,237Z"></path><path class="cls-14" d="M103.69,249l17.57-10.17a2.66,2.66,0,0,1,2.67,0l54.24,31.37a1.18,1.18,0,0,1,0,2L161,282.19a3.15,3.15,0,0,1-3.17,0l-54.18-31.33A1.05,1.05,0,0,1,103.69,249Z"></path><path class="cls-15" d="M103.69,250.86l54.18,31.33a3.15,3.15,0,0,0,3.17,0l17.14-9.91a1.18,1.18,0,0,0,.58-1v2.08h0v0h0a1.17,1.17,0,0,1-.58,1L161,284.27a3.18,3.18,0,0,1-3.17,0l-54.18-31.34a1,1,0,0,1-.52-.92h0V250A1.07,1.07,0,0,0,103.69,250.86Z"></path><polygon class="cls-16" points="121.05 241.72 123.25 240.45 125.75 241.89 123.56 243.16 121.05 241.72"></polygon><polygon class="cls-16" points="124.17 243.52 126.37 242.24 128.87 243.69 126.68 244.96 124.17 243.52"></polygon><polygon class="cls-16" points="127.29 245.31 129.49 244.04 131.99 245.48 129.8 246.75 127.29 245.31"></polygon><polygon class="cls-16" points="130.41 247.11 132.61 245.83 135.11 247.27 132.91 248.55 130.41 247.11"></polygon><polygon class="cls-16" points="133.53 248.9 135.72 247.63 138.22 249.07 136.03 250.34 133.53 248.9"></polygon><polygon class="cls-16" points="136.64 250.7 138.84 249.42 141.34 250.86 139.15 252.14 136.64 250.7"></polygon><polygon class="cls-16" points="139.76 252.49 141.96 251.22 144.46 252.66 142.27 253.93 139.76 252.49"></polygon><polygon class="cls-16" points="142.88 254.29 145.08 253.01 147.58 254.45 145.39 255.73 142.88 254.29"></polygon><polygon class="cls-16" points="146 256.08 148.2 254.81 150.7 256.25 148.5 257.52 146 256.08"></polygon><polygon class="cls-16" points="149.12 257.88 151.31 256.6 153.81 258.04 151.62 259.31 149.12 257.88"></polygon><polygon class="cls-16" points="152.23 259.67 154.43 258.4 156.93 259.84 154.74 261.11 152.23 259.67"></polygon><polygon class="cls-16" points="155.35 261.47 157.55 260.19 160.05 261.63 157.86 262.9 155.35 261.47"></polygon><polygon class="cls-16" points="160.67 261.99 163.17 263.43 160.98 264.7 158.47 263.26 160.67 261.99"></polygon><polygon class="cls-16" points="120.71 244.81 118.21 243.37 120.41 242.1 122.91 243.54 120.71 244.81"></polygon><polygon class="cls-16" points="126.02 245.33 123.83 246.6 121.33 245.17 123.52 243.89 126.02 245.33"></polygon><polygon class="cls-16" points="129.14 247.13 126.95 248.4 124.44 246.96 126.64 245.69 129.14 247.13"></polygon><polygon class="cls-16" points="132.26 248.92 130.07 250.19 127.56 248.76 129.76 247.48 132.26 248.92"></polygon><polygon class="cls-16" points="135.38 250.72 133.19 251.99 130.68 250.55 132.88 249.28 135.38 250.72"></polygon><polygon class="cls-16" points="138.5 252.51 136.3 253.78 133.8 252.35 136 251.07 138.5 252.51"></polygon><polygon class="cls-16" points="141.61 254.31 139.42 255.58 136.91 254.14 139.12 252.87 141.61 254.31"></polygon><polygon class="cls-16" points="144.73 256.1 142.54 257.37 140.03 255.94 142.23 254.66 144.73 256.1"></polygon><polygon class="cls-16" points="147.85 257.9 145.66 259.17 143.15 257.73 145.35 256.45 147.85 257.9"></polygon><polygon class="cls-16" points="150.97 259.69 148.78 260.96 146.27 259.53 148.47 258.25 150.97 259.69"></polygon><polygon class="cls-16" points="154.09 261.49 151.89 262.76 149.39 261.32 151.59 260.05 154.09 261.49"></polygon><polygon class="cls-16" points="157.21 263.28 155.01 264.55 152.51 263.12 154.71 261.84 157.21 263.28"></polygon><polygon class="cls-16" points="157.82 263.63 160.32 265.08 158.13 266.35 155.62 264.91 157.82 263.63"></polygon><polygon class="cls-16" points="117.87 246.46 115.36 245.02 117.56 243.75 120.06 245.19 117.87 246.46"></polygon><polygon class="cls-16" points="123.18 246.98 120.99 248.25 118.48 246.82 120.68 245.54 123.18 246.98"></polygon><polygon class="cls-16" points="121.6 248.61 123.8 247.34 126.3 248.78 124.1 250.05 121.6 248.61"></polygon><polygon class="cls-16" points="129.41 250.57 127.22 251.84 124.72 250.41 126.92 249.13 129.41 250.57"></polygon><polygon class="cls-16" points="132.53 252.37 130.34 253.64 127.83 252.2 130.03 250.93 132.53 252.37"></polygon><polygon class="cls-16" points="135.65 254.16 133.46 255.43 130.95 254 133.15 252.72 135.65 254.16"></polygon><polygon class="cls-16" points="138.77 255.96 136.58 257.23 134.07 255.79 136.27 254.51 138.77 255.96"></polygon><polygon class="cls-16" points="141.89 257.75 139.69 259.02 137.19 257.58 139.39 256.31 141.89 257.75"></polygon><polygon class="cls-16" points="145 259.55 142.81 260.82 140.31 259.38 142.5 258.1 145 259.55"></polygon><polygon class="cls-16" points="148.12 261.34 145.93 262.61 143.42 261.18 145.62 259.9 148.12 261.34"></polygon><polygon class="cls-16" points="151.24 263.13 149.05 264.41 146.54 262.97 148.74 261.69 151.24 263.13"></polygon><polygon class="cls-16" points="149.66 264.76 151.86 263.49 154.36 264.93 152.17 266.2 149.66 264.76"></polygon><polygon class="cls-16" points="154.98 265.28 157.48 266.73 155.28 268 152.78 266.56 154.98 265.28"></polygon><polygon class="cls-16" points="115.02 248.11 112.52 246.67 114.72 245.39 117.21 246.84 115.02 248.11"></polygon><polygon class="cls-16" points="115.63 248.47 117.83 247.19 120.33 248.63 118.14 249.9 115.63 248.47"></polygon><polygon class="cls-16" points="118.75 250.26 120.95 248.98 123.45 250.43 121.26 251.7 118.75 250.26"></polygon><polygon class="cls-16" points="121.87 252.05 124.07 250.78 126.57 252.22 124.38 253.49 121.87 252.05"></polygon><polygon class="cls-16" points="124.99 253.85 127.19 252.57 129.69 254.01 127.49 255.29 124.99 253.85"></polygon><polygon class="cls-16" points="128.1 255.64 130.31 254.37 132.8 255.81 130.61 257.08 128.1 255.64"></polygon><polygon class="cls-16" points="131.22 257.44 133.42 256.16 135.92 257.61 133.73 258.88 131.22 257.44"></polygon><polygon class="cls-16" points="134.34 259.23 136.54 257.96 139.04 259.4 136.85 260.67 134.34 259.23"></polygon><polygon class="cls-16" points="137.46 261.03 139.66 259.75 142.16 261.19 139.97 262.47 137.46 261.03"></polygon><polygon class="cls-16" points="140.58 262.82 142.78 261.55 145.28 262.99 143.08 264.26 140.58 262.82"></polygon><polygon class="cls-16" points="143.69 264.62 145.9 263.34 148.4 264.78 146.2 266.06 143.69 264.62"></polygon><polygon class="cls-16" points="146.81 266.41 149.01 265.14 151.51 266.58 149.32 267.85 146.81 266.41"></polygon><polygon class="cls-16" points="152.13 266.93 154.63 268.37 152.44 269.64 149.93 268.21 152.13 266.93"></polygon><polygon class="cls-16" points="112.18 249.76 109.67 248.32 111.87 247.04 114.37 248.48 112.18 249.76"></polygon><polygon class="cls-16" points="112.79 250.11 114.99 248.84 117.49 250.28 115.29 251.55 112.79 250.11"></polygon><polygon class="cls-16" points="115.91 251.91 118.11 250.63 120.6 252.07 118.41 253.35 115.91 251.91"></polygon><polygon class="cls-16" points="119.02 253.7 121.22 252.43 123.72 253.87 121.53 255.14 119.02 253.7"></polygon><polygon class="cls-16" points="122.14 255.5 124.34 254.22 126.84 255.66 124.65 256.94 122.14 255.5"></polygon><polygon class="cls-16" points="125.26 257.29 127.46 256.02 129.96 257.46 127.77 258.73 125.26 257.29"></polygon><polygon class="cls-16" points="128.38 259.09 130.58 257.81 133.08 259.25 130.88 260.52 128.38 259.09"></polygon><polygon class="cls-16" points="131.5 260.88 133.69 259.61 136.19 261.05 134 262.32 131.5 260.88"></polygon><polygon class="cls-16" points="134.61 262.68 136.81 261.4 139.31 262.84 137.12 264.12 134.61 262.68"></polygon><polygon class="cls-16" points="137.73 264.47 139.93 263.2 142.43 264.64 140.24 265.91 137.73 264.47"></polygon><polygon class="cls-16" points="140.85 266.27 143.05 264.99 145.55 266.43 143.36 267.7 140.85 266.27"></polygon><polygon class="cls-16" points="143.97 268.06 146.17 266.79 148.67 268.23 146.47 269.5 143.97 268.06"></polygon><polygon class="cls-16" points="149.28 268.58 151.78 270.02 149.59 271.29 147.09 269.86 149.28 268.58"></polygon><polygon class="cls-16" points="109.02 248.69 111.52 250.13 109.33 251.41 106.82 249.97 109.02 248.69"></polygon><polygon class="cls-16" points="114.64 251.93 112.45 253.2 109.94 251.76 112.14 250.49 114.64 251.93"></polygon><polygon class="cls-16" points="117.76 253.72 115.57 254.99 113.06 253.56 115.26 252.28 117.76 253.72"></polygon><polygon class="cls-16" points="120.88 255.52 118.68 256.79 116.18 255.35 118.38 254.08 120.88 255.52"></polygon><polygon class="cls-16" points="123.99 257.31 121.8 258.58 119.3 257.15 121.5 255.87 123.99 257.31"></polygon><polygon class="cls-16" points="127.11 259.11 124.92 260.38 122.41 258.94 124.61 257.67 127.11 259.11"></polygon><polygon class="cls-16" points="127.73 259.46 130.85 261.25 130.85 261.25 131.46 261.61 133.97 263.05 133.97 263.05 135.24 263.78 137.08 264.85 137.09 264.84 139.05 265.98 142.7 268.08 140.51 269.35 136.69 267.16 134.88 266.12 134.89 266.12 132.99 265.03 131.77 264.33 131.77 264.32 129.3 262.91 128.65 262.53 128.65 262.53 125.53 260.74 127.73 259.46"></polygon><polygon class="cls-16" points="145.82 269.88 143.63 271.15 141.12 269.71 143.32 268.43 145.82 269.88"></polygon><polygon class="cls-16" points="148.94 271.67 146.75 272.94 144.24 271.5 146.44 270.23 148.94 271.67"></polygon><polygon class="cls-16" points="164.71 266.85 166.91 265.57 169.4 267.01 167.21 268.29 164.71 266.85"></polygon><polygon class="cls-16" points="167.82 268.64 170.02 267.37 172.52 268.81 170.33 270.08 167.82 268.64"></polygon><polygon class="cls-16" points="170.94 270.44 173.14 269.16 175.64 270.6 173.45 271.88 170.94 270.44"></polygon><polygon class="cls-16" points="166.56 268.66 164.37 269.94 161.86 268.5 164.06 267.22 166.56 268.66"></polygon><polygon class="cls-16" points="169.68 270.46 167.48 271.73 164.98 270.29 167.18 269.02 169.68 270.46"></polygon><polygon class="cls-16" points="172.79 272.25 170.6 273.52 168.09 272.09 170.29 270.81 172.79 272.25"></polygon><polygon class="cls-16" points="163.71 270.31 161.52 271.58 159.01 270.15 161.21 268.87 163.71 270.31"></polygon><polygon class="cls-16" points="166.83 272.11 164.64 273.38 162.13 271.94 164.33 270.67 166.83 272.11"></polygon><polygon class="cls-16" points="169.95 273.9 167.76 275.17 165.25 273.74 167.45 272.46 169.95 273.9"></polygon><polygon class="cls-16" points="156.17 271.79 158.37 270.52 160.87 271.96 158.67 273.23 156.17 271.79"></polygon><polygon class="cls-16" points="159.28 273.59 161.49 272.31 163.98 273.75 161.79 275.03 159.28 273.59"></polygon><polygon class="cls-16" points="162.4 275.38 164.6 274.11 167.1 275.55 164.91 276.82 162.4 275.38"></polygon><polygon class="cls-16" points="153.32 273.44 155.52 272.17 158.02 273.61 155.83 274.88 153.32 273.44"></polygon><polygon class="cls-16" points="156.44 275.24 158.64 273.96 161.14 275.4 158.95 276.68 156.44 275.24"></polygon><polygon class="cls-16" points="159.56 277.03 161.76 275.76 164.26 277.2 162.06 278.47 159.56 277.03"></polygon><polygon class="cls-16" points="155.17 275.26 152.98 276.53 150.47 275.09 152.68 273.82 155.17 275.26"></polygon><polygon class="cls-16" points="158.29 277.05 156.1 278.32 153.59 276.89 155.79 275.61 158.29 277.05"></polygon><path class="cls-16" d="M142.66,232.18l17.28-10a2.39,2.39,0,0,1,2.37,0l41,23.67a1,1,0,0,1,0,1.8l-16.9,9.81a2.84,2.84,0,0,1-2.82,0l-40.93-23.63A.93.93,0,0,1,142.66,232.18Z"></path><path class="cls-17" d="M142.66,233.79l40.93,23.63a2.84,2.84,0,0,0,2.82,0l16.9-9.81a1,1,0,0,0,.51-.9v2.1h0a1,1,0,0,1-.51.88l-16.9,9.81a2.79,2.79,0,0,1-2.82,0L142.66,235.9a.94.94,0,0,1-.47-.82h0V233A.92.92,0,0,0,142.66,233.79Z"></path><path class="cls-15" d="M142.66,233.79l40.93,23.63a2.86,2.86,0,0,0,1.29.37v2.1a2.74,2.74,0,0,1-1.29-.37L142.66,235.9a.94.94,0,0,1-.47-.82h0V233A.92.92,0,0,0,142.66,233.79Z"></path><polygon class="cls-14" points="187.49 233.76 155.62 215.32 155.62 231.1 187.49 249.53 187.49 233.76"></polygon><polygon class="cls-17" points="160.06 212.77 155.62 215.32 187.49 233.76 191.93 231.2 160.06 212.77"></polygon><polygon class="cls-17" points="191.93 231.2 187.49 233.76 187.49 249.53 191.93 246.95 191.93 231.2"></polygon><polygon class="cls-18" points="123.42 134.97 220.27 191.15 220.27 262.42 123.42 206.02 123.42 134.97"></polygon><polygon class="cls-17" points="220.27 191.15 223.49 189.19 223.49 260.47 220.27 262.42 220.27 191.15"></polygon><polygon class="cls-16" points="123.42 134.97 126.72 133.06 223.49 189.19 220.27 191.15 123.42 134.97"></polygon><path class="cls-15" d="M123.42,135V206l96.85,56.4V191.15ZM218,258.43,125.71,204.7V139L218,192.47Z"></path><path class="cls-19" d="M87.55,223c-1,10.18-8.51,17.77-16.77,17S56.64,230.2,57.64,220s8.52-17.77,16.78-17S88.56,212.79,87.55,223Z"></path><path class="cls-20" d="M99.89,246.7s3.59.87,4.84,1,6,1.11,7.89.52-1.7-1.86-2.59-2.53-.85-2.32,1.1-2.91,6.34-.31,8.67-.64-2.31-7.38-6.11-8a16,16,0,0,0-10.39,1.41c-3.23,1.59-5,4.28-6.51,4.81Z"></path><path class="cls-21" d="M100.3,237.09l-24.55,6.15-1.23,15.6,29-9.93C104.1,243.39,100.3,237.09,100.3,237.09Z"></path><path class="cls-21" d="M39.75,243.69s-6.79,8.55,0,20.34c0,0,4.75,6.57,17.78.14Z"></path><path class="cls-22" d="M59.87,233.69s10.59-.72,18.89,5.09A6.39,6.39,0,0,0,81,241.63c1.66,1.11,9.89,4.41,9.89,4.41s-3.63,48.33.54,71.86c0,0-17.89,14-45.84,0,0,0-4.08-59.34-5.88-74.21C39.75,243.69,44.41,237.93,59.87,233.69Z"></path><polygon class="cls-6" points="55.21 313.48 5.1 284.51 21.97 333.37 72.09 362.27 55.21 313.48"></polygon><polygon class="cls-2" points="10.64 281.3 5.1 284.51 55.21 313.48 60.81 310.23 10.64 281.3"></polygon><polygon class="cls-11" points="60.81 310.23 55.21 313.48 72.09 362.27 77.75 359.01 60.81 310.23"></polygon><path class="cls-20" d="M132.9,268.11s2.74-2.76,3.78-3.54,4.73-4.26,6.79-4.72-1.46,3.12-1.88,4.24,2.11-.9,4-1.62a9.36,9.36,0,0,1,6.57.23c4.74,1.68,4.51,11.17.63,10.05-6.38-1.85-9.25,3.22-13.05,4.28a38.74,38.74,0,0,1-5.4,1Z"></path><path class="cls-21" d="M90.93,246l20.73,27.46,21.53-6.36s4.62,5.82,3.12,12l-28.74,11.19-23.36-25.7S76.39,248.33,90.93,246Z"></path><path class="cls-10" d="M79.39,194.37s1.59,3.82-6,4.86-17,4.83-19.52,12.87c-1.59,5.15.25,10.67,2.83,15.16a28.74,28.74,0,0,0,3,4.41,16.42,16.42,0,0,0,11.24-1.93,19.42,19.42,0,0,0,6-7.38s4.54,1.89,6-1.89c1-2.78,4.32-3.47,6.11-5C89.05,215.48,99.35,198.65,79.39,194.37Z"></path><polygon class="cls-6" points="363.8 340.6 330.6 321.32 330.6 333.75 363.81 352.96 363.8 340.6"></polygon><polygon class="cls-2" points="364.92 301.6 330.6 321.32 363.8 340.6 398.17 320.84 364.92 301.6"></polygon><polygon class="cls-11" points="398.17 320.84 363.8 340.6 363.81 352.96 398.17 333.08 398.17 320.84"></polygon><polygon class="cls-6" points="363.8 320.28 330.6 301 330.6 313.43 363.81 332.64 363.8 320.28"></polygon><polygon class="cls-2" points="364.92 281.28 330.6 301 363.8 320.28 398.17 300.53 364.92 281.28"></polygon><polygon class="cls-11" points="398.17 300.52 363.8 320.28 363.81 332.64 398.17 312.76 398.17 300.52"></polygon><polygon class="cls-6" points="307.65 373.11 274.45 353.84 274.45 366.26 307.65 385.48 307.65 373.11"></polygon><polygon class="cls-2" points="308.77 334.11 274.45 353.84 307.65 373.11 342.02 353.36 308.77 334.11"></polygon><polygon class="cls-11" points="342.02 353.36 307.65 373.11 307.65 385.48 342.02 365.6 342.02 353.36"></polygon><polygon class="cls-6" points="307.65 352.79 274.45 333.52 274.45 345.94 307.65 365.16 307.65 352.79"></polygon><polygon class="cls-2" points="308.77 313.8 274.45 333.52 307.65 352.79 342.02 333.04 308.77 313.8"></polygon><polygon class="cls-11" points="342.02 333.04 307.65 352.79 307.65 365.16 342.02 345.28 342.02 333.04"></polygon><polygon class="cls-6" points="251.5 405.62 218.3 386.35 218.3 398.77 251.5 417.99 251.5 405.62"></polygon><polygon class="cls-2" points="252.61 366.63 218.3 386.35 251.5 405.62 285.86 385.87 252.61 366.63"></polygon><polygon class="cls-11" points="285.86 385.87 251.5 405.62 251.5 417.99 285.86 398.11 285.86 385.87"></polygon><polygon class="cls-6" points="251.5 385.3 218.3 366.03 218.3 378.45 251.5 397.67 251.5 385.3"></polygon><polygon class="cls-2" points="252.61 346.31 218.3 366.03 251.5 385.3 285.86 365.55 252.61 346.31"></polygon><polygon class="cls-11" points="285.86 365.55 251.5 385.3 251.5 397.67 285.86 377.79 285.86 365.55"></polygon><path class="cls-9" d="M261.86,373.13l-2.09-1.2a19.14,19.14,0,0,1-4.88,1.17v1.7h-5.07v-1.7a19.76,19.76,0,0,1-4.89-1.17l-2.07,1.2-3.6-2.08,2.08-1.2a6.5,6.5,0,0,1-2.05-2.83h-2.93l0-2.93h2.94a6.55,6.55,0,0,1,2-2.84l-2.09-1.2,3.57-2.07,2.09,1.2a19.14,19.14,0,0,1,4.88-1.17V356.3h5.07V358a19.4,19.4,0,0,1,4.9,1.17l2.07-1.21,3.6,2.08-2.08,1.21a6.48,6.48,0,0,1,2,2.83h2.94l0,2.93h-2.94a6.39,6.39,0,0,1-2,2.83l2.09,1.21Zm-14.23-4.85a10.38,10.38,0,0,0,9.4,0c2.59-1.51,2.57-3.95,0-5.45a10.38,10.38,0,0,0-9.4,0c-2.59,1.5-2.57,3.94,0,5.45"></path><polygon class="cls-23" points="311.3 324.51 314.53 331.41 317.76 338.31 305.84 336.46 293.93 334.61 302.62 329.56 311.3 324.51"></polygon><path class="cls-24" d="M351.93,299.05q-2.7-1.56,2.43-4.53a14.73,14.73,0,0,1,4.53-1.84,4.68,4.68,0,0,1,3.26.28,2.35,2.35,0,0,1,.87.8,4.36,4.36,0,0,1,.4.89l3.14-.77a3.82,3.82,0,0,0-.82-1.37,5.84,5.84,0,0,0-1.34-1,9.43,9.43,0,0,0-5.86-1.06,17.84,17.84,0,0,0-7,2.46q-3.58,2.08-4.22,4c-.43,1.29.19,2.41,1.86,3.38a9.1,9.1,0,0,0,3.5,1.19l2.44-1.42A9.36,9.36,0,0,1,351.93,299.05Z"></path><path class="cls-24" d="M366.84,302.85a3.08,3.08,0,0,0,0-2.33,3.21,3.21,0,0,1-.25-1.6,1.64,1.64,0,0,1,.88-1,3.46,3.46,0,0,1,1.55-.48,2.58,2.58,0,0,1,1.47.34,2.71,2.71,0,0,1,.92.79,5.34,5.34,0,0,1,.52.88l3.11-.75a5.29,5.29,0,0,0-2.33-2.44,7.57,7.57,0,0,0-4-1,8.19,8.19,0,0,0-4.05,1.13,5.4,5.4,0,0,0-1.48,1.16,2.88,2.88,0,0,0-.58,1.23,3.38,3.38,0,0,0,.19,1.56A3.48,3.48,0,0,1,363,302a1.6,1.6,0,0,1-.87,1.06,3.17,3.17,0,0,1-1.58.45,3,3,0,0,1-1.63-.44,4.44,4.44,0,0,1-2-2.39l-2.71,1.58a6.14,6.14,0,0,0,2.55,2.35,7.9,7.9,0,0,0,4.12,1.1,8.55,8.55,0,0,0,4.22-1.23A4.15,4.15,0,0,0,366.84,302.85Z"></path><path class="cls-24" d="M381.24,301.21a7.44,7.44,0,0,0-4-1,8.21,8.21,0,0,0-4,1.13,5.4,5.4,0,0,0-1.48,1.16,2.8,2.8,0,0,0-.59,1.23,3.55,3.55,0,0,0,.2,1.56,3.48,3.48,0,0,1,.22,1.7,1.66,1.66,0,0,1-.87,1.06,3.31,3.31,0,0,1-1.58.45,3.14,3.14,0,0,1-1.63-.43,4.48,4.48,0,0,1-2-2.4l-2.72,1.58a6.1,6.1,0,0,0,2.54,2.34,7.76,7.76,0,0,0,4.13,1.11,8.52,8.52,0,0,0,4.22-1.23,4.16,4.16,0,0,0,1.73-1.67,3,3,0,0,0-.05-2.32,3.08,3.08,0,0,1-.24-1.6,1.57,1.57,0,0,1,.86-1,3.5,3.5,0,0,1,1.56-.48,2.58,2.58,0,0,1,1.47.34,2.7,2.7,0,0,1,.92.79,5.27,5.27,0,0,1,.51.88l3.11-.75A5.19,5.19,0,0,0,381.24,301.21Z"></path><path class="cls-25" d="M363.06,190.31,330.82,171.7a3,3,0,0,0-3.23.13h0l-7.08,4.08,3.29,4.47,1.23,1.4v31.95a5.33,5.33,0,0,0,2.66,4.62l24.13,14,.25,1.34,4.92,6.9,7.58-4.45,0,0,.05,0h0a2.4,2.4,0,0,0,1.15-2.07V195.07A5.47,5.47,0,0,0,363.06,190.31Z"></path><path class="cls-26" d="M355.53,194.74,322.9,175.91a2.39,2.39,0,0,0-3.58,2.07V217a5.32,5.32,0,0,0,2.66,4.61l32.62,18.86a2.45,2.45,0,0,0,3.68-2.12V199.5A5.49,5.49,0,0,0,355.53,194.74Z"></path><path class="cls-6" d="M357,240.52l-.05,0h0Z"></path><path class="cls-27" d="M358.28,238.39V199.5a5.43,5.43,0,0,0-.38-1.88l7.57-4.36a5.53,5.53,0,0,1,.34,1.81V234a2.4,2.4,0,0,1-1.15,2.07h0l-.05,0,0,0-7.51,4.42A2.44,2.44,0,0,0,358.28,238.39Z"></path><path class="cls-28" d="M400,112.62,367.72,94a3.05,3.05,0,0,0-3.23.13h0l-7.08,4.09,3.29,4.46,1.23,1.41v32a5.32,5.32,0,0,0,2.66,4.61l24.13,14L389,156l4.93,6.91,7.57-4.46,0,0,.05,0h0a2.42,2.42,0,0,0,1.15-2.08V117.38A5.5,5.5,0,0,0,400,112.62Z"></path><path class="cls-29" d="M392.43,117.05,359.8,98.22a2.39,2.39,0,0,0-3.58,2.07v39.06a5.32,5.32,0,0,0,2.66,4.61l32.62,18.86a2.45,2.45,0,0,0,3.68-2.12V121.81A5.5,5.5,0,0,0,392.43,117.05Z"></path><path class="cls-6" d="M393.94,162.83l0,0h0Z"></path><path class="cls-30" d="M395.18,160.7V121.81a5.38,5.38,0,0,0-.38-1.87l7.57-4.36a5.43,5.43,0,0,1,.35,1.8v38.89a2.42,2.42,0,0,1-1.15,2.08h0l-.05,0,0,0L394,162.82A2.44,2.44,0,0,0,395.18,160.7Z"></path><path class="cls-31" d="M292.13,113.18,259.88,94.57a3.07,3.07,0,0,0-3.23.13h0l-7.08,4.09,3.3,4.46,1.22,1.41v32a5.34,5.34,0,0,0,2.66,4.61l24.14,14,.25,1.34,4.92,6.9,7.58-4.45,0,0,.06,0h0a2.42,2.42,0,0,0,1.15-2.07v-38.9A5.5,5.5,0,0,0,292.13,113.18Z"></path><path class="cls-32" d="M284.59,117.61,252,98.79a2.39,2.39,0,0,0-3.58,2.07v39.05a5.35,5.35,0,0,0,2.66,4.62l32.63,18.86a2.45,2.45,0,0,0,3.67-2.12v-38.9A5.51,5.51,0,0,0,284.59,117.61Z"></path><path class="cls-6" d="M286.11,163.39l-.05,0h0Z"></path><path class="cls-33" d="M287.34,161.27v-38.9a5.41,5.41,0,0,0-.37-1.87l7.57-4.36a5.47,5.47,0,0,1,.34,1.8v38.9a2.42,2.42,0,0,1-1.15,2.07h0l-.06,0,0,0-7.51,4.41A2.4,2.4,0,0,0,287.34,161.27Z"></path><path class="cls-34" d="M221.51,37.86,189.26,19.25a3,3,0,0,0-3.22.13h0L179,23.47l3.3,4.46,1.22,1.41v32a5.34,5.34,0,0,0,2.66,4.61l24.14,13.95.25,1.34,4.92,6.91L223,83.64l0,0,.05,0h0a2.44,2.44,0,0,0,1.15-2.08V42.62A5.5,5.5,0,0,0,221.51,37.86Z"></path><path class="cls-35" d="M214,42.29,181.35,23.46a2.4,2.4,0,0,0-3.59,2.07V64.59a5.33,5.33,0,0,0,2.67,4.61l32.62,18.86a2.44,2.44,0,0,0,3.67-2.12V47.05A5.48,5.48,0,0,0,214,42.29Z"></path><path class="cls-6" d="M215.49,88.07l-.05,0h0Z"></path><path class="cls-36" d="M216.72,85.94V47.05a5.37,5.37,0,0,0-.37-1.87l7.57-4.36a5.42,5.42,0,0,1,.34,1.8V81.51a2.44,2.44,0,0,1-1.15,2.08h0l-.05,0,0,0-7.51,4.42A2.42,2.42,0,0,0,216.72,85.94Z"></path><path class="cls-2" d="M278.16,125.28a20.64,20.64,0,0,0-7.18-7.57c-2.6-1.5-5.2-1.86-7.19-.73-3.54,2-3.94,8.08-1.21,14.2l-8.87,5,2.58,4.47,8.87-5a19,19,0,0,0,5.77,5.4c2.59,1.5,5.19,1.86,7.18.73C282.09,139.52,282.11,132.13,278.16,125.28Zm-2.63,12c-1.27.73-2.94.5-4.6-.46a13.2,13.2,0,0,1-4.59-4.84c-2.53-4.38-2.52-9.11,0-10.55,1.27-.73,2.94-.5,4.6.46a13.28,13.28,0,0,1,4.59,4.84C278.09,131.13,278.07,135.86,275.53,137.31Z"></path><path class="cls-29" d="M188,45.65a7,7,0,0,1,1.47,1.15c.5.49,1,1,1.49,1.57l.92-2.1a16.14,16.14,0,0,0-3.87-3.3,5.7,5.7,0,0,0-3.3-1,2.69,2.69,0,0,0-2.16,1.5,7.62,7.62,0,0,0-.77,3.71,14,14,0,0,0,1.51,6.66,11.25,11.25,0,0,0,4.41,4.56,9.36,9.36,0,0,0,3.64,1.32V57.05A10.11,10.11,0,0,1,188,55.91q-3.31-1.92-3.3-7c0-1.63.29-2.73.87-3.31S187,45,188,45.65Z"></path><polygon class="cls-29" points="198.84 51.92 196.86 50.78 196.85 54.84 193.35 52.81 193.34 55.09 196.84 57.12 196.83 61.12 198.81 62.26 198.82 58.26 202.32 60.28 202.33 58 198.83 55.98 198.84 51.92"></polygon><polygon class="cls-29" points="209.41 62.09 209.42 58.03 207.43 56.88 207.42 60.94 203.93 58.92 203.92 61.2 207.41 63.22 207.4 67.22 209.39 68.37 209.4 64.36 212.9 66.38 212.9 64.1 209.41 62.09"></polygon><path class="cls-2" d="M366.9,114.58a3.11,3.11,0,0,0-.53,2.13l0,4.67v.12c0,.89-.28,1.36-.85,1.43a4.43,4.43,0,0,1-2.42-.82v3.25a8.4,8.4,0,0,1,2.42,2,4.06,4.06,0,0,1,.84,2.54v4.61a6.45,6.45,0,0,0,.52,2.76,7,7,0,0,0,1.66,2.24,17.73,17.73,0,0,0,3.16,2.22v-3.07a5.26,5.26,0,0,1-1.76-1.57,3.57,3.57,0,0,1-.46-1.84v-4.59c0-1.77-1-3.37-2.92-4.84v-.17q2.9,1.19,2.94-1.62V119.6c0-.71.17-1.14.48-1.3s.9,0,1.75.47V115.7a12.2,12.2,0,0,0-3.14-1.41A1.68,1.68,0,0,0,366.9,114.58Z"></path><path class="cls-2" d="M385.14,134.26a3.83,3.83,0,0,1-.82-2.39v-4.79a6.24,6.24,0,0,0-1.2-3.88,13.59,13.59,0,0,0-4.16-3.32V123a5.24,5.24,0,0,1,1.76,1.56,3.47,3.47,0,0,1,.46,1.84v4.42a6.36,6.36,0,0,0,2.95,5V136a2.88,2.88,0,0,0-2.2-.22c-.51.25-.77.81-.77,1.7V142c0,.71-.16,1.15-.47,1.31s-.91,0-1.76-.48v3.08c2,1.14,3.35,1.62,4.17,1.47s1.21-1,1.21-2.49v-4.62c0-1,.29-1.48.84-1.57a4.22,4.22,0,0,1,2.42.81v-3.25A8.31,8.31,0,0,1,385.14,134.26Z"></path><polygon class="cls-16" points="323.46 201.08 333.56 212.06 333.57 209.26 326.61 201.93 333.59 202.25 333.6 199.43 323.46 199.4 323.46 201.08"></polygon><polygon class="cls-16" points="334.6 215.04 337.42 216.67 343.04 202.74 340.21 201.11 334.6 215.04"></polygon><polygon class="cls-16" points="344.02 205.45 344.02 208.26 350.99 216.01 344 215.28 343.99 218.07 354.13 218.79 354.14 217.11 344.02 205.45"></polygon><polygon class="cls-35" points="135.47 149.78 135.47 151.67 143.41 156.25 143.41 154.36 135.47 149.78"></polygon><polygon class="cls-37" points="135.47 153.23 135.47 155.12 143.41 159.7 143.41 157.81 135.47 153.23"></polygon><polygon class="cls-37" points="135.47 156.68 135.47 158.57 143.41 163.15 143.41 161.26 135.47 156.68"></polygon><polygon class="cls-37" points="195.39 196.59 195.39 194.7 146.39 166.43 146.39 168.32 195.39 196.59"></polygon><polygon class="cls-37" points="135.47 160.13 135.47 162.03 143.41 166.6 143.41 164.71 135.47 160.13"></polygon><polygon class="cls-37" points="135.47 163.59 135.47 165.48 143.41 170.06 143.41 168.17 135.47 163.59"></polygon><polygon class="cls-26" points="195.39 200.04 195.39 198.15 146.39 169.88 146.39 171.78 195.39 200.04"></polygon><polygon class="cls-37" points="135.47 173.95 135.47 175.84 143.41 180.42 143.41 178.53 135.47 173.95"></polygon><polygon class="cls-35" points="135.47 177.4 135.47 179.29 143.41 183.87 143.41 181.98 135.47 177.4"></polygon><polygon class="cls-37" points="135.47 191.21 135.47 193.1 143.41 197.68 143.41 195.79 135.47 191.21"></polygon><polygon class="cls-37" points="135.47 194.66 135.47 196.55 143.41 201.13 143.41 199.24 135.47 194.66"></polygon><polygon class="cls-26" points="177.3 218.79 146.39 200.96 146.39 202.85 177.3 220.68 177.3 218.79"></polygon><polygon class="cls-37" points="178.93 219.73 178.93 221.62 195.39 231.12 195.39 229.23 178.93 219.73"></polygon><polygon class="cls-37" points="161.92 206.47 146.39 197.51 146.39 199.4 161.92 208.36 161.92 206.47"></polygon><polygon class="cls-37" points="163.55 207.41 163.55 209.3 195.39 227.66 195.39 225.77 163.55 207.41"></polygon><polygon class="cls-37" points="191.2 213 191.2 214.89 195.39 217.31 195.39 215.41 191.2 213"></polygon><polygon class="cls-5" points="168.41 196.4 146.39 183.7 146.39 185.59 168.41 198.29 168.41 196.4"></polygon><polygon class="cls-37" points="159.38 163.57 146.39 156.07 146.39 157.97 159.38 165.46 159.38 163.57"></polygon><polygon class="cls-37" points="180.69 175.86 161.01 164.51 161.01 166.4 180.69 177.75 180.69 175.86"></polygon><polygon class="cls-37" points="169.22 172.7 155.37 164.71 155.37 166.6 169.22 174.59 169.22 172.7"></polygon><polygon class="cls-5" points="183.75 181.08 170.85 173.64 170.85 175.53 183.75 182.97 183.75 181.08"></polygon><polygon class="cls-37" points="185.38 182.02 185.38 183.91 195.39 189.68 195.39 187.79 185.38 182.02"></polygon><polygon class="cls-5" points="148.95 164.46 148.95 166.35 159.38 172.37 159.38 170.48 148.95 164.46"></polygon><polygon class="cls-37" points="191.31 188.89 161.01 171.42 161.01 173.31 191.31 190.78 191.31 188.89"></polygon><polygon class="cls-37" points="173.96 189.24 154.16 177.82 154.16 179.72 173.96 191.13 173.96 189.24"></polygon><polygon class="cls-37" points="191.31 199.25 175.59 190.18 175.59 192.07 191.31 201.14 191.31 199.25"></polygon><polygon class="cls-37" points="189.57 208.61 170.03 197.34 170.03 199.23 189.57 210.5 189.57 208.61"></polygon><polygon class="cls-26" points="178.93 205.92 178.93 207.81 189.57 213.95 189.57 212.06 178.93 205.92"></polygon><polygon class="cls-37" points="150.22 189.36 146.39 187.15 146.39 189.04 150.22 191.25 150.22 189.36"></polygon><polygon class="cls-37" points="157.4 193.5 157.4 195.39 177.3 206.87 177.3 204.98 157.4 193.5"></polygon><polygon class="cls-37" points="155.77 192.56 151.85 190.3 151.85 192.19 155.77 194.45 155.77 192.56"></polygon><polygon class="cls-37" points="173.62 206.31 151.85 193.75 151.85 195.64 173.62 208.2 173.62 206.31"></polygon><polygon class="cls-37" points="198.84 186.35 198.84 186.87 201.02 188.13 201.02 187.61 198.84 186.35"></polygon><polygon class="cls-37" points="198.84 187.3 198.84 187.82 201.02 189.08 201.02 188.56 198.84 187.3"></polygon><polygon class="cls-37" points="198.84 188.25 198.84 188.77 201.02 190.04 201.02 189.51 198.84 188.25"></polygon><polygon class="cls-37" points="215.35 199.25 215.35 198.73 201.84 190.94 201.84 191.46 215.35 199.25"></polygon><polygon class="cls-37" points="198.84 189.2 198.84 189.72 201.02 190.99 201.02 190.47 198.84 189.2"></polygon><polygon class="cls-37" points="198.84 190.16 198.84 190.68 201.02 191.94 201.02 191.42 198.84 190.16"></polygon><polygon class="cls-37" points="215.35 200.2 215.35 199.68 201.84 191.89 201.84 192.41 215.35 200.2"></polygon><polygon class="cls-37" points="198.84 193.01 198.84 193.53 201.02 194.79 201.02 194.27 198.84 193.01"></polygon><polygon class="cls-37" points="198.84 193.96 198.84 194.48 201.02 195.74 201.02 195.22 198.84 193.96"></polygon><polygon class="cls-37" points="198.84 197.77 198.84 198.29 201.02 199.55 201.02 199.03 198.84 197.77"></polygon><polygon class="cls-37" points="198.84 198.72 198.84 199.24 201.02 200.5 201.02 199.98 198.84 198.72"></polygon><polygon class="cls-37" points="210.36 205.37 201.84 200.45 201.84 200.97 210.36 205.89 210.36 205.37"></polygon><polygon class="cls-37" points="210.81 205.63 210.81 206.15 215.35 208.76 215.35 208.24 210.81 205.63"></polygon><polygon class="cls-37" points="206.12 201.97 201.84 199.5 201.84 200.02 206.12 202.49 206.12 201.97"></polygon><polygon class="cls-37" points="206.57 202.23 206.57 202.75 215.35 207.81 215.35 207.29 206.57 202.23"></polygon><polygon class="cls-37" points="214.19 203.77 214.19 204.29 215.35 204.96 215.35 204.44 214.19 203.77"></polygon><polygon class="cls-37" points="207.91 199.2 201.84 195.7 201.84 196.22 207.91 199.72 207.91 199.2"></polygon><polygon class="cls-37" points="205.43 190.15 201.84 188.09 201.84 188.61 205.43 190.67 205.43 190.15"></polygon><polygon class="cls-37" points="211.29 193.54 205.87 190.41 205.87 190.93 211.29 194.06 211.29 193.54"></polygon><polygon class="cls-37" points="208.14 192.67 204.32 190.47 204.32 190.99 208.14 193.19 208.14 192.67"></polygon><polygon class="cls-37" points="212.14 194.98 208.59 192.93 208.59 193.45 212.14 195.5 212.14 194.98"></polygon><polygon class="cls-37" points="212.59 195.24 212.59 195.76 215.35 197.35 215.35 196.82 212.59 195.24"></polygon><polygon class="cls-37" points="202.55 190.4 202.55 190.92 205.43 192.57 205.43 192.05 202.55 190.4"></polygon><polygon class="cls-37" points="214.22 197.13 205.87 192.31 205.87 192.83 214.22 197.65 214.22 197.13"></polygon><polygon class="cls-37" points="209.44 197.22 203.99 194.08 203.99 194.6 209.44 197.75 209.44 197.22"></polygon><polygon class="cls-37" points="214.22 199.98 209.89 197.48 209.89 198 214.22 200.5 214.22 199.98"></polygon><polygon class="cls-37" points="213.74 202.56 208.36 199.46 208.36 199.98 213.74 203.08 213.74 202.56"></polygon><polygon class="cls-37" points="210.81 201.82 210.81 202.34 213.74 204.03 213.74 203.51 210.81 201.82"></polygon><polygon class="cls-37" points="202.9 197.26 201.84 196.65 201.84 197.17 202.9 197.78 202.9 197.26"></polygon><polygon class="cls-37" points="204.88 198.4 204.88 198.92 210.36 202.08 210.36 201.56 204.88 198.4"></polygon><polygon class="cls-37" points="204.43 198.14 203.35 197.52 203.35 198.04 204.43 198.66 204.43 198.14"></polygon><polygon class="cls-37" points="209.35 201.93 203.35 198.47 203.35 198.99 209.35 202.45 209.35 201.93"></polygon><polygon class="cls-37" points="198.84 202.45 198.84 202.97 201.02 204.23 201.02 203.71 198.84 202.45"></polygon><polygon class="cls-37" points="198.84 203.4 198.84 203.92 201.02 205.18 201.02 204.66 198.84 203.4"></polygon><polygon class="cls-37" points="198.84 204.35 198.84 204.87 201.02 206.13 201.02 205.61 198.84 204.35"></polygon><polygon class="cls-37" points="215.35 215.35 215.35 214.83 201.84 207.04 201.84 207.56 215.35 215.35"></polygon><polygon class="cls-37" points="198.84 205.3 198.84 205.82 201.02 207.09 201.02 206.56 198.84 205.3"></polygon><polygon class="cls-37" points="198.84 206.25 198.84 206.78 201.02 208.04 201.02 207.52 198.84 206.25"></polygon><polygon class="cls-37" points="215.35 216.3 215.35 215.78 201.84 207.99 201.84 208.51 215.35 216.3"></polygon><polygon class="cls-37" points="198.84 209.11 198.84 209.63 201.02 210.89 201.02 210.37 198.84 209.11"></polygon><polygon class="cls-37" points="198.84 210.06 198.84 210.58 201.02 211.84 201.02 211.32 198.84 210.06"></polygon><polygon class="cls-37" points="198.84 213.87 198.84 214.39 201.02 215.65 201.02 215.13 198.84 213.87"></polygon><polygon class="cls-37" points="198.84 214.82 198.84 215.34 201.02 216.6 201.02 216.08 198.84 214.82"></polygon><polygon class="cls-37" points="210.36 221.47 201.84 216.55 201.84 217.07 210.36 221.99 210.36 221.47"></polygon><polygon class="cls-37" points="210.81 221.72 210.81 222.25 215.35 224.86 215.35 224.34 210.81 221.72"></polygon><polygon class="cls-37" points="206.12 218.07 201.84 215.6 201.84 216.12 206.12 218.59 206.12 218.07"></polygon><polygon class="cls-37" points="206.57 218.33 206.57 218.85 215.35 223.91 215.35 223.39 206.57 218.33"></polygon><polygon class="cls-37" points="214.19 219.87 214.19 220.39 215.35 221.06 215.35 220.53 214.19 219.87"></polygon><polygon class="cls-37" points="207.91 215.29 201.84 211.79 201.84 212.32 207.91 215.81 207.91 215.29"></polygon><polygon class="cls-37" points="205.43 206.25 201.84 204.18 201.84 204.7 205.43 206.77 205.43 206.25"></polygon><polygon class="cls-37" points="211.29 209.63 205.87 206.51 205.87 207.03 211.29 210.16 211.29 209.63"></polygon><polygon class="cls-37" points="208.14 208.76 204.32 206.56 204.32 207.08 208.14 209.28 208.14 208.76"></polygon><polygon class="cls-37" points="212.14 211.07 208.59 209.02 208.59 209.54 212.14 211.59 212.14 211.07"></polygon><polygon class="cls-37" points="212.59 211.33 212.59 211.85 215.35 213.44 215.35 212.92 212.59 211.33"></polygon><polygon class="cls-37" points="202.55 206.49 202.55 207.01 205.43 208.67 205.43 208.15 202.55 206.49"></polygon><polygon class="cls-37" points="214.22 213.23 205.87 208.41 205.87 208.93 214.22 213.75 214.22 213.23"></polygon><polygon class="cls-37" points="209.44 213.32 203.99 210.18 203.99 210.7 209.44 213.84 209.44 213.32"></polygon><polygon class="cls-37" points="214.22 216.08 209.89 213.58 209.89 214.1 214.22 216.6 214.22 216.08"></polygon><polygon class="cls-37" points="213.74 218.66 208.36 215.55 208.36 216.07 213.74 219.18 213.74 218.66"></polygon><polygon class="cls-37" points="210.81 217.92 210.81 218.44 213.74 220.13 213.74 219.61 210.81 217.92"></polygon><polygon class="cls-37" points="202.9 213.35 201.84 212.75 201.84 213.27 202.9 213.88 202.9 213.35"></polygon><polygon class="cls-37" points="204.88 214.5 204.88 215.02 210.36 218.18 210.36 217.66 204.88 214.5"></polygon><polygon class="cls-37" points="204.43 214.24 203.35 213.61 203.35 214.13 204.43 214.76 204.43 214.24"></polygon><polygon class="cls-37" points="209.35 218.03 203.35 214.56 203.35 215.09 209.35 218.55 209.35 218.03"></polygon><polygon class="cls-37" points="198.84 218.55 198.84 219.07 201.02 220.33 201.02 219.81 198.84 218.55"></polygon><polygon class="cls-37" points="198.84 219.5 198.84 220.02 201.02 221.28 201.02 220.76 198.84 219.5"></polygon><polygon class="cls-37" points="198.84 220.45 198.84 220.97 201.02 222.23 201.02 221.71 198.84 220.45"></polygon><polygon class="cls-37" points="215.35 231.44 215.35 230.92 201.84 223.14 201.84 223.66 215.35 231.44"></polygon><polygon class="cls-37" points="198.84 221.4 198.84 221.92 201.02 223.18 201.02 222.66 198.84 221.4"></polygon><polygon class="cls-37" points="198.84 222.35 198.84 222.87 201.02 224.13 201.02 223.61 198.84 222.35"></polygon><polygon class="cls-37" points="215.35 232.4 215.35 231.88 201.84 224.09 201.84 224.61 215.35 232.4"></polygon><polygon class="cls-37" points="198.84 225.21 198.84 225.73 201.02 226.99 201.02 226.47 198.84 225.21"></polygon><polygon class="cls-37" points="198.84 226.16 198.84 226.68 201.02 227.94 201.02 227.42 198.84 226.16"></polygon><polygon class="cls-37" points="198.84 229.96 198.84 230.48 201.02 231.75 201.02 231.22 198.84 229.96"></polygon><polygon class="cls-37" points="198.84 230.91 198.84 231.44 201.02 232.7 201.02 232.18 198.84 230.91"></polygon><polygon class="cls-37" points="210.36 237.56 201.84 232.65 201.84 233.17 210.36 238.08 210.36 237.56"></polygon><polygon class="cls-37" points="210.81 237.82 210.81 238.34 215.35 240.96 215.35 240.44 210.81 237.82"></polygon><polygon class="cls-37" points="206.12 234.17 201.84 231.7 201.84 232.22 206.12 234.69 206.12 234.17"></polygon><polygon class="cls-37" points="206.57 234.43 206.57 234.95 215.35 240.01 215.35 239.49 206.57 234.43"></polygon><polygon class="cls-37" points="214.19 235.97 214.19 236.49 215.35 237.15 215.35 236.63 214.19 235.97"></polygon><polygon class="cls-37" points="207.91 231.39 201.84 227.89 201.84 228.41 207.91 231.91 207.91 231.39"></polygon><polygon class="cls-37" points="205.43 222.35 201.84 220.28 201.84 220.8 205.43 222.87 205.43 222.35"></polygon><polygon class="cls-37" points="211.29 225.73 205.87 222.61 205.87 223.13 211.29 226.25 211.29 225.73"></polygon><polygon class="cls-37" points="208.14 224.86 204.32 222.66 204.32 223.18 208.14 225.38 208.14 224.86"></polygon><polygon class="cls-37" points="212.14 227.17 208.59 225.12 208.59 225.64 212.14 227.69 212.14 227.17"></polygon><polygon class="cls-37" points="212.59 227.43 212.59 227.95 215.35 229.54 215.35 229.02 212.59 227.43"></polygon><polygon class="cls-37" points="202.55 222.59 202.55 223.11 205.43 224.77 205.43 224.25 202.55 222.59"></polygon><polygon class="cls-37" points="214.22 229.32 205.87 224.51 205.87 225.03 214.22 229.84 214.22 229.32"></polygon><polygon class="cls-37" points="209.44 229.42 203.99 226.28 203.99 226.8 209.44 229.94 209.44 229.42"></polygon><polygon class="cls-37" points="214.22 232.18 209.89 229.68 209.89 230.2 214.22 232.7 214.22 232.18"></polygon><polygon class="cls-37" points="213.74 234.76 208.36 231.65 208.36 232.17 213.74 235.28 213.74 234.76"></polygon><polygon class="cls-37" points="210.81 234.02 210.81 234.54 213.74 236.23 213.74 235.71 210.81 234.02"></polygon><polygon class="cls-37" points="202.9 229.45 201.84 228.84 201.84 229.37 202.9 229.97 202.9 229.45"></polygon><polygon class="cls-37" points="204.88 230.59 204.88 231.12 210.36 234.28 210.36 233.76 204.88 230.59"></polygon><polygon class="cls-37" points="204.43 230.34 203.35 229.71 203.35 230.23 204.43 230.86 204.43 230.34"></polygon><polygon class="cls-37" points="209.35 234.12 203.35 230.66 203.35 231.19 209.35 234.65 209.35 234.12"></polygon><polygon class="cls-37" points="198.84 234.65 198.84 235.17 201.02 236.43 201.02 235.91 198.84 234.65"></polygon><polygon class="cls-37" points="198.84 235.6 198.84 236.12 201.02 237.38 201.02 236.86 198.84 235.6"></polygon><polygon class="cls-37" points="198.84 236.55 198.84 237.07 201.02 238.33 201.02 237.81 198.84 236.55"></polygon><polygon class="cls-37" points="215.35 247.54 215.35 247.02 201.84 239.23 201.84 239.75 215.35 247.54"></polygon><polygon class="cls-37" points="198.84 237.5 198.84 238.02 201.02 239.28 201.02 238.76 198.84 237.5"></polygon><polygon class="cls-37" points="198.84 238.45 198.84 238.97 201.02 240.23 201.02 239.71 198.84 238.45"></polygon><polygon class="cls-37" points="215.35 248.5 215.35 247.97 201.84 240.19 201.84 240.71 215.35 248.5"></polygon><polygon class="cls-37" points="198.84 241.3 198.84 241.82 201.02 243.09 201.02 242.57 198.84 241.3"></polygon><polygon class="cls-37" points="198.84 242.26 198.84 242.78 201.02 244.04 201.02 243.52 198.84 242.26"></polygon><polygon class="cls-37" points="214.19 252.06 214.19 252.59 215.35 253.25 215.35 252.73 214.19 252.06"></polygon><polygon class="cls-37" points="207.91 247.49 201.84 243.99 201.84 244.51 207.91 248.01 207.91 247.49"></polygon><polygon class="cls-37" points="205.43 238.45 201.84 236.38 201.84 236.9 205.43 238.97 205.43 238.45"></polygon><polygon class="cls-37" points="211.29 241.83 205.87 238.71 205.87 239.22 211.29 242.35 211.29 241.83"></polygon><polygon class="cls-37" points="208.14 240.96 204.32 238.76 204.32 239.28 208.14 241.48 208.14 240.96"></polygon><polygon class="cls-37" points="212.14 243.27 208.59 241.22 208.59 241.74 212.14 243.79 212.14 243.27"></polygon><polygon class="cls-37" points="212.59 243.53 212.59 244.05 215.35 245.64 215.35 245.12 212.59 243.53"></polygon><polygon class="cls-37" points="202.55 238.69 202.55 239.21 205.43 240.87 205.43 240.35 202.55 238.69"></polygon><polygon class="cls-37" points="214.22 245.42 205.87 240.61 205.87 241.13 214.22 245.94 214.22 245.42"></polygon><polygon class="cls-37" points="209.44 245.52 203.99 242.37 203.99 242.89 209.44 246.04 209.44 245.52"></polygon><polygon class="cls-37" points="214.22 248.28 209.89 245.78 209.89 246.3 214.22 248.8 214.22 248.28"></polygon><polygon class="cls-37" points="213.74 250.85 208.36 247.75 208.36 248.27 213.74 251.38 213.74 250.85"></polygon><polygon class="cls-37" points="210.81 250.12 210.81 250.64 213.74 252.33 213.74 251.81 210.81 250.12"></polygon><polygon class="cls-37" points="202.9 245.55 201.84 244.94 201.84 245.46 202.9 246.07 202.9 245.55"></polygon><polygon class="cls-37" points="204.88 246.69 204.88 247.21 210.36 250.38 210.36 249.86 204.88 246.69"></polygon><polygon class="cls-37" points="204.43 246.43 203.35 245.81 203.35 246.33 204.43 246.95 204.43 246.43"></polygon><polygon class="cls-37" points="209.35 250.22 203.35 246.76 203.35 247.28 209.35 250.74 209.35 250.22"></polygon><path class="cls-26" d="M130.38,146.84l-2.62-1.51a.19.19,0,0,0-.28.17v3.13a.44.44,0,0,0,.21.37l2.62,1.51a.19.19,0,0,0,.29-.17v-3.12A.43.43,0,0,0,130.38,146.84Z"></path><path class="cls-26" d="M130.38,151.53,127.76,150a.18.18,0,0,0-.28.16v3.13a.41.41,0,0,0,.21.37l2.62,1.52a.2.2,0,0,0,.29-.17v-3.12A.42.42,0,0,0,130.38,151.53Z"></path><path class="cls-26" d="M130.38,156.21l-2.62-1.51a.19.19,0,0,0-.28.17V158a.44.44,0,0,0,.21.37l2.62,1.51a.19.19,0,0,0,.29-.17v-3.12A.43.43,0,0,0,130.38,156.21Z"></path><path class="cls-26" d="M130.38,160.89l-2.62-1.5a.18.18,0,0,0-.28.16v3.13a.41.41,0,0,0,.21.37l2.62,1.51a.19.19,0,0,0,.29-.17v-3.11A.44.44,0,0,0,130.38,160.89Z"></path><path class="cls-26" d="M130.38,165.58l-2.62-1.51a.19.19,0,0,0-.28.17v3.13a.44.44,0,0,0,.21.37l2.62,1.51a.19.19,0,0,0,.29-.17V166A.43.43,0,0,0,130.38,165.58Z"></path><path class="cls-26" d="M130.38,170.26l-2.62-1.51a.19.19,0,0,0-.28.17v3.13a.42.42,0,0,0,.21.37l2.62,1.51a.19.19,0,0,0,.29-.17v-3.11A.44.44,0,0,0,130.38,170.26Z"></path><path class="cls-26" d="M130.38,175l-2.62-1.51a.19.19,0,0,0-.28.17v3.13a.44.44,0,0,0,.21.37l2.62,1.51a.2.2,0,0,0,.29-.17v-3.12A.43.43,0,0,0,130.38,175Z"></path><path class="cls-26" d="M130.38,179.63l-2.62-1.51a.19.19,0,0,0-.28.17v3.13a.42.42,0,0,0,.21.37l2.62,1.51a.19.19,0,0,0,.29-.17V180A.44.44,0,0,0,130.38,179.63Z"></path><path class="cls-26" d="M130.38,184.32l-2.62-1.51a.19.19,0,0,0-.28.16v3.14a.44.44,0,0,0,.21.37l2.62,1.51a.2.2,0,0,0,.29-.17V184.7A.43.43,0,0,0,130.38,184.32Z"></path><path class="cls-26" d="M130.38,189l-2.62-1.51a.19.19,0,0,0-.28.17v3.13a.44.44,0,0,0,.21.37l2.62,1.51a.19.19,0,0,0,.29-.17v-3.12A.44.44,0,0,0,130.38,189Z"></path><path class="cls-26" d="M130.38,193.69l-2.62-1.51a.19.19,0,0,0-.28.16v3.14a.44.44,0,0,0,.21.37l2.62,1.51a.2.2,0,0,0,.29-.17v-3.12A.43.43,0,0,0,130.38,193.69Z"></path><path class="cls-26" d="M130.38,198.37l-2.62-1.51a.19.19,0,0,0-.28.17v3.13a.44.44,0,0,0,.21.37l2.62,1.51a.19.19,0,0,0,.29-.17v-3.12A.44.44,0,0,0,130.38,198.37Z"></path><g class="cls-1"><polygon class="cls-2" points="253.27 163.44 253.27 165.33 261.21 169.91 261.21 168.02 253.27 163.44"></polygon><polygon class="cls-2" points="253.27 166.9 253.27 168.79 261.21 173.37 261.21 171.47 253.27 166.9"></polygon><polygon class="cls-2" points="253.27 170.35 253.27 172.24 261.21 176.82 261.21 174.93 253.27 170.35"></polygon><polygon class="cls-2" points="313.19 210.25 313.19 208.37 264.19 180.1 264.19 181.99 313.19 210.25"></polygon><polygon class="cls-2" points="253.27 173.8 253.27 175.69 261.21 180.27 261.21 178.38 253.27 173.8"></polygon><polygon class="cls-2" points="253.27 177.25 253.27 179.14 261.21 183.72 261.21 181.83 253.27 177.25"></polygon><polygon class="cls-2" points="313.19 213.71 313.19 211.82 264.19 183.55 264.19 185.44 313.19 213.71"></polygon><polygon class="cls-2" points="253.27 187.61 253.27 189.5 261.21 194.08 261.21 192.19 253.27 187.61"></polygon><polygon class="cls-2" points="253.27 191.06 253.27 192.96 261.21 197.53 261.21 195.65 253.27 191.06"></polygon><polygon class="cls-2" points="253.27 204.88 253.27 206.77 261.21 211.35 261.21 209.46 253.27 204.88"></polygon><polygon class="cls-2" points="253.27 208.33 253.27 210.22 261.21 214.8 261.21 212.91 253.27 208.33"></polygon><polygon class="cls-2" points="295.1 232.46 264.19 214.63 264.19 216.52 295.1 234.35 295.1 232.46"></polygon><polygon class="cls-2" points="296.73 233.4 296.73 235.29 313.19 244.78 313.19 242.89 296.73 233.4"></polygon><polygon class="cls-2" points="279.72 220.13 264.19 211.18 264.19 213.06 279.72 222.02 279.72 220.13"></polygon><polygon class="cls-2" points="281.35 221.07 281.35 222.96 313.19 241.33 313.19 239.44 281.35 221.07"></polygon><polygon class="cls-2" points="309 226.66 309 228.56 313.19 230.97 313.19 229.08 309 226.66"></polygon><polygon class="cls-2" points="286.2 210.06 264.19 197.36 264.19 199.25 286.2 211.95 286.2 210.06"></polygon><polygon class="cls-2" points="277.18 177.24 264.19 169.74 264.19 171.63 277.18 179.13 277.18 177.24"></polygon><polygon class="cls-2" points="298.49 189.53 278.81 178.18 278.81 180.07 298.49 191.42 298.49 189.53"></polygon><polygon class="cls-2" points="287.02 186.36 273.17 178.37 273.17 180.26 287.02 188.25 287.02 186.36"></polygon><polygon class="cls-2" points="301.55 194.75 288.65 187.3 288.65 189.19 301.55 196.64 301.55 194.75"></polygon><polygon class="cls-2" points="303.18 195.69 303.18 197.58 313.19 203.35 313.19 201.46 303.18 195.69"></polygon><polygon class="cls-2" points="266.75 178.12 266.75 180.01 277.18 186.03 277.18 184.14 266.75 178.12"></polygon><polygon class="cls-2" points="309.11 202.56 278.81 185.08 278.81 186.97 309.11 204.45 309.11 202.56"></polygon><polygon class="cls-2" points="291.76 202.91 271.96 191.49 271.96 193.38 291.76 204.8 291.76 202.91"></polygon><polygon class="cls-2" points="309.11 212.91 293.39 203.85 293.39 205.74 309.11 214.81 309.11 212.91"></polygon><polygon class="cls-2" points="307.37 222.27 287.83 211 287.83 212.89 307.37 224.16 307.37 222.27"></polygon><polygon class="cls-2" points="296.73 219.59 296.73 221.48 307.37 227.62 307.37 225.72 296.73 219.59"></polygon><polygon class="cls-2" points="268.02 203.03 264.19 200.82 264.19 202.71 268.02 204.92 268.02 203.03"></polygon><polygon class="cls-2" points="275.2 207.17 275.2 209.06 295.1 220.54 295.1 218.65 275.2 207.17"></polygon><polygon class="cls-2" points="273.57 206.23 269.65 203.97 269.65 205.86 273.57 208.12 273.57 206.23"></polygon><polygon class="cls-2" points="291.42 219.98 269.65 207.42 269.65 209.31 291.42 221.87 291.42 219.98"></polygon></g><g class="cls-1"><polygon class="cls-2" points="326.26 45.11 326.26 47 334.2 51.58 334.2 49.69 326.26 45.11"></polygon><polygon class="cls-2" points="326.26 48.56 326.26 50.45 334.2 55.03 334.2 53.14 326.26 48.56"></polygon><polygon class="cls-2" points="326.26 52.02 326.26 53.91 334.2 58.49 334.2 56.6 326.26 52.02"></polygon><polygon class="cls-2" points="386.18 91.92 386.18 90.03 337.18 61.77 337.18 63.66 386.18 91.92"></polygon><polygon class="cls-2" points="326.26 55.47 326.26 57.36 334.2 61.94 334.2 60.05 326.26 55.47"></polygon><polygon class="cls-2" points="326.26 58.92 326.26 60.81 334.2 65.39 334.2 63.5 326.26 58.92"></polygon><polygon class="cls-2" points="386.18 95.38 386.18 93.49 337.18 65.22 337.18 67.11 386.18 95.38"></polygon><polygon class="cls-2" points="326.26 69.28 326.26 71.17 334.2 75.75 334.2 73.86 326.26 69.28"></polygon><polygon class="cls-2" points="326.26 72.73 326.26 74.62 334.2 79.2 334.2 77.31 326.26 72.73"></polygon><polygon class="cls-2" points="326.26 86.55 326.26 88.44 334.2 93.02 334.2 91.12 326.26 86.55"></polygon><polygon class="cls-2" points="326.26 90 326.26 91.89 334.2 96.47 334.2 94.58 326.26 90"></polygon><polygon class="cls-2" points="368.09 114.13 337.18 96.3 337.18 98.19 368.09 116.02 368.09 114.13"></polygon><polygon class="cls-2" points="369.72 115.07 369.72 116.96 386.18 126.45 386.18 124.56 369.72 115.07"></polygon><polygon class="cls-2" points="352.71 101.8 337.18 92.84 337.18 94.73 352.71 103.69 352.71 101.8"></polygon><polygon class="cls-2" points="354.34 102.74 354.34 104.63 386.18 123 386.18 121.11 354.34 102.74"></polygon><polygon class="cls-2" points="381.99 108.33 381.99 110.22 386.18 112.64 386.18 110.75 381.99 108.33"></polygon><polygon class="cls-2" points="359.19 91.73 337.18 79.03 337.18 80.92 359.19 93.62 359.19 91.73"></polygon><polygon class="cls-2" points="350.17 58.91 337.18 51.41 337.18 53.3 350.17 60.8 350.17 58.91"></polygon><polygon class="cls-2" points="371.48 71.19 351.8 59.84 351.8 61.74 371.48 73.08 371.48 71.19"></polygon><polygon class="cls-2" points="360.01 68.03 346.16 60.04 346.16 61.93 360.01 69.92 360.01 68.03"></polygon><polygon class="cls-2" points="374.54 76.42 361.64 68.97 361.64 70.86 374.54 78.31 374.54 76.42"></polygon><polygon class="cls-2" points="376.17 77.36 376.17 79.25 386.18 85.02 386.18 83.13 376.17 77.36"></polygon><polygon class="cls-2" points="339.74 59.79 339.74 61.68 350.17 67.7 350.17 65.81 339.74 59.79"></polygon><polygon class="cls-2" points="382.1 84.22 351.8 66.75 351.8 68.64 382.1 86.11 382.1 84.22"></polygon><polygon class="cls-2" points="364.75 84.58 344.95 73.16 344.95 75.05 364.75 86.47 364.75 84.58"></polygon><polygon class="cls-2" points="382.1 94.58 366.38 85.52 366.38 87.41 382.1 96.47 382.1 94.58"></polygon><polygon class="cls-2" points="380.36 103.94 360.82 92.67 360.82 94.56 380.36 105.83 380.36 103.94"></polygon><polygon class="cls-2" points="369.72 101.26 369.72 103.15 380.36 109.28 380.36 107.39 369.72 101.26"></polygon><polygon class="cls-2" points="341.01 84.69 337.18 82.48 337.18 84.38 341.01 86.58 341.01 84.69"></polygon><polygon class="cls-2" points="348.18 88.83 348.18 90.72 368.09 102.21 368.09 100.32 348.18 88.83"></polygon><polygon class="cls-2" points="346.55 87.89 342.64 85.64 342.64 87.53 346.55 89.78 346.55 87.89"></polygon><polygon class="cls-2" points="364.41 101.64 342.64 89.09 342.64 90.98 364.41 103.53 364.41 101.64"></polygon></g><path class="cls-14" d="M182.73,287.74s-4.48-2-9.74,1.49-8.81,8.36-6.67,10.15,6.3,3.72,9,2.76S191.36,293.32,182.73,287.74Z"></path><polygon class="cls-5" points="293.8 267.13 252.2 290.7 225.69 275.36 267.28 251.8 293.8 267.13"></polygon><polygon class="cls-38" points="260.34 290.13 260.34 291.06 301.94 267.25 301.94 266.57 260.34 290.13"></polygon><polygon class="cls-39" points="301.94 266.57 260.34 290.13 233.83 274.8 275.43 251.24 301.94 266.57"></polygon><polygon class="cls-40" points="260.34 290.13 260.34 291.06 233.83 275.72 233.83 274.8 260.34 290.13"></polygon><polygon class="cls-41" points="275.14 253.75 291.16 262.99 290.45 263.39 274.44 254.15 275.14 253.75"></polygon><polygon class="cls-41" points="273.48 254.69 289.49 263.93 288.79 264.33 272.77 255.09 273.48 254.69"></polygon><polygon class="cls-41" points="269.6 256.89 291.66 269.62 290.96 270.01 268.9 257.28 269.6 256.89"></polygon><polygon class="cls-41" points="268.08 257.75 290.13 270.48 289.43 270.88 267.37 258.15 268.08 257.75"></polygon><polygon class="cls-41" points="266.55 258.62 288.61 271.35 287.9 271.75 265.85 259.02 266.55 258.62"></polygon><polygon class="cls-41" points="265.02 259.49 287.08 272.22 286.38 272.62 264.32 259.88 265.02 259.49"></polygon><polygon class="cls-41" points="263.5 260.35 285.55 273.08 284.85 273.48 262.79 260.75 263.5 260.35"></polygon><polygon class="cls-41" points="261.97 261.22 284.02 273.95 283.32 274.35 261.27 261.62 261.97 261.22"></polygon><polygon class="cls-41" points="260.44 262.09 282.5 274.82 281.8 275.21 259.74 262.48 260.44 262.09"></polygon><polygon class="cls-41" points="258.92 262.95 280.97 275.68 280.27 276.08 258.21 263.35 258.92 262.95"></polygon><polygon class="cls-41" points="257.39 263.82 279.44 276.55 278.74 276.95 256.69 264.22 257.39 263.82"></polygon><polygon class="cls-41" points="255.86 264.69 277.92 277.42 277.22 277.81 255.16 265.08 255.86 264.69"></polygon><polygon class="cls-41" points="254.34 265.55 276.39 278.28 275.69 278.68 253.63 265.95 254.34 265.55"></polygon><polygon class="cls-41" points="252.81 266.42 274.87 279.15 274.16 279.55 252.11 266.82 252.81 266.42"></polygon><polygon class="cls-41" points="251.28 267.29 273.34 280.01 272.64 280.41 250.58 267.68 251.28 267.29"></polygon><polygon class="cls-41" points="249.76 268.15 271.81 280.88 271.11 281.28 249.05 268.55 249.76 268.15"></polygon><polygon class="cls-41" points="248.23 269.02 270.29 281.75 269.58 282.15 247.53 269.42 248.23 269.02"></polygon><path class="cls-11" d="M230.26,280.85h-3.89v4.2h3.89a2.63,2.63,0,0,1,2.62,2.62v6.82a2.62,2.62,0,0,1-2.62,2.62h-5.71v4.2h5.71a6.83,6.83,0,0,0,6.82-6.82v-6.82A6.83,6.83,0,0,0,230.26,280.85Z"></path><path class="cls-6" d="M228.8,278.53v23.63c0,3.67-5.47,6.63-12.2,6.63s-12.2-3-12.2-6.63V278.53Z"></path><path class="cls-2" d="M204.4,278.53c0,3.67,5.46,6.63,12.2,6.63s12.2-3,12.2-6.63-5.47-6.63-12.2-6.63S204.4,274.87,204.4,278.53Z"></path><path class="cls-11" d="M206.83,278.45c0,2.86,4.37,5.19,9.77,5.19s9.77-2.33,9.77-5.19-4.38-5.19-9.77-5.19S206.83,275.59,206.83,278.45Z"></path><path class="cls-10" d="M216.6,276.66c-4.27,0-7.9,1.46-9.22,3.49,1.32,2,5,3.49,9.22,3.49s7.9-1.46,9.22-3.49C224.5,278.12,220.87,276.66,216.6,276.66Z"></path><path class="cls-11" d="M221.21,284.67V308.3a13.14,13.14,0,0,0,5.75-2.65V282A13.14,13.14,0,0,1,221.21,284.67Z"></path></svg>